<?xml version="1.0" standalone="no"?>
<!DOCTYPE svg PUBLIC "-//W3C//DTD SVG 20010904//EN"
 "http://www.w3.org/TR/2001/REC-SVG-20010904/DTD/svg10.dtd">
<svg version="1.0" xmlns="http://www.w3.org/2000/svg"
 width="1280.000000pt" height="856.000000pt" viewBox="0 0 1280.000000 856.000000"
 preserveAspectRatio="xMidYMid meet">
<metadata>
Created by potrace 1.15, written by Peter Selinger 2001-2017
</metadata>
<g transform="translate(0.000000,856.000000) scale(0.100000,-0.100000)"
fill="#f44336" stroke="none">
<path d="M0 7184 c0 -835 4 -1373 9 -1369 15 8 68 179 93 298 12 59 25 107 28
107 3 0 32 -53 65 -117 137 -267 285 -472 545 -758 86 -93 196 -217 245 -275
49 -58 130 -148 180 -200 209 -219 341 -411 453 -655 58 -128 130 -337 134
-392 l3 -37 -73 -12 c-78 -14 -133 -41 -148 -75 -6 -13 -6 -51 0 -100 l9 -79
-55 -58 c-67 -70 -92 -136 -86 -222 6 -89 49 -165 122 -215 l58 -40 -4 -85 -3
-85 43 -22 c24 -12 77 -30 119 -39 41 -10 77 -24 80 -31 5 -14 -27 -206 -58
-338 -35 -156 -98 -342 -172 -516 -76 -177 -375 -784 -492 -999 -120 -220
-283 -556 -344 -708 -33 -85 -61 -155 -61 -158 0 -2 201 -4 448 -4 l447 0 115
227 c63 125 154 297 202 382 126 224 419 817 469 946 57 150 152 453 191 608
18 70 35 127 38 127 3 0 28 -46 57 -103 112 -219 220 -359 636 -821 157 -175
285 -327 330 -393 115 -168 205 -332 232 -425 14 -46 32 -99 39 -119 l14 -36
-50 -18 c-148 -53 -186 -104 -163 -216 7 -34 4 -40 -33 -77 -22 -22 -45 -50
-52 -61 l-11 -21 987 0 987 0 -7 68 c-4 37 -11 83 -16 103 -13 46 -64 117 -95
131 -23 10 -25 15 -19 59 11 82 2 96 -79 134 -40 18 -85 37 -100 41 -16 3 -31
12 -33 18 -7 17 23 206 47 301 71 277 186 557 400 968 400 768 521 1037 614
1372 l33 120 26 -57 c33 -74 164 -294 229 -383 28 -38 141 -185 252 -325 111
-140 225 -291 255 -334 150 -224 249 -450 265 -604 5 -54 4 -63 -12 -68 -50
-15 -135 -60 -155 -81 -19 -20 -22 -33 -20 -90 3 -64 1 -68 -32 -102 -82 -84
-102 -215 -50 -312 16 -28 47 -67 70 -85 l41 -34 -4 -72 -5 -73 45 -26 c24
-15 74 -37 111 -49 l66 -23 0 -46 c0 -48 -57 -279 -109 -442 -17 -53 -31 -99
-31 -103 0 -3 168 -6 373 -6 l372 0 19 80 c10 44 22 82 26 85 3 2 14 -10 24
-28 10 -18 32 -56 49 -84 l31 -53 410 0 410 0 -30 33 c-30 32 -116 141 -165
207 -86 118 -151 276 -211 520 -2 6 28 24 66 40 38 16 83 42 99 57 28 27 29
31 24 93 -5 63 -5 65 35 110 63 71 73 96 72 180 0 95 -25 153 -84 200 -40 31
-42 36 -37 74 11 79 -29 128 -136 164 -32 10 -59 21 -61 23 -3 2 8 72 24 154
21 109 47 198 93 325 120 327 187 472 461 1005 135 261 271 571 347 788 13 37
26 67 29 67 3 0 27 -44 54 -97 68 -137 180 -320 366 -593 192 -282 280 -448
344 -648 25 -79 43 -148 40 -153 -3 -5 -15 -9 -27 -9 -27 0 -105 -35 -129 -57
-13 -12 -18 -31 -18 -76 0 -58 -2 -61 -40 -95 -59 -50 -90 -117 -90 -194 0
-78 23 -130 83 -193 l46 -47 -10 -57 c-9 -53 -8 -57 15 -77 13 -12 67 -39 120
-59 53 -21 96 -42 96 -47 0 -19 -63 -317 -86 -406 -68 -268 -216 -657 -403
-1062 -39 -85 -71 -158 -71 -162 0 -5 162 -7 361 -6 l360 3 40 90 c125 279
248 598 324 840 l47 149 57 -109 c68 -133 260 -430 347 -538 84 -104 153 -221
200 -339 l38 -98 548 0 548 0 4 23 c3 12 12 58 21 102 20 99 82 329 101 373
12 27 14 178 13 890 l-1 857 -83 -250 c-93 -282 -168 -476 -316 -821 -133
-312 -233 -571 -273 -712 l-33 -114 -20 34 c-10 18 -31 58 -45 88 -13 30 -83
143 -155 250 -211 315 -301 473 -387 677 -27 65 -69 217 -81 293 -3 25 -8 52
-11 61 -3 11 6 20 28 29 165 63 174 71 164 150 -6 45 -5 50 19 66 36 24 77 98
86 157 12 77 -5 139 -58 204 l-44 55 12 49 c18 70 -3 111 -74 144 -28 14 -59
25 -68 25 -40 0 -43 24 -15 153 55 249 135 462 321 857 230 490 378 840 453
1077 l26 82 77 -153 c42 -84 126 -244 186 -357 149 -276 199 -375 249 -499
l43 -105 1 846 0 845 -23 60 c-40 101 -41 108 -7 121 l30 11 0 1389 0 1388
-32 -50 c-34 -53 -179 -350 -254 -519 -46 -103 -125 -294 -229 -558 -32 -81
-60 -147 -61 -145 -15 15 -525 1044 -551 1112 -19 50 -48 146 -64 215 -17 69
-33 133 -35 143 -5 16 -39 17 -577 15 l-571 -3 -12 -65 c-15 -78 -45 -164
-157 -455 -63 -164 -140 -332 -304 -660 -210 -423 -340 -702 -419 -905 -20
-52 -40 -98 -44 -103 -3 -4 -17 19 -30 50 -27 68 -146 270 -276 469 -51 78
-132 206 -180 285 -48 79 -116 186 -151 237 -124 178 -242 462 -304 731 -37
163 -37 168 4 176 42 10 116 48 145 75 19 18 23 31 21 70 -2 32 3 57 14 74
l17 26 -905 0 c-544 0 -905 -4 -905 -9 0 -5 25 -32 56 -60 l57 -50 -5 -86 c-3
-56 -1 -89 7 -95 6 -5 37 -16 68 -24 32 -8 63 -19 70 -23 6 -4 30 -8 52 -8
l40 0 -3 -55 c-4 -66 -34 -213 -69 -335 -71 -249 -184 -505 -514 -1163 -332
-661 -410 -840 -479 -1101 l-12 -45 -67 130 c-146 283 -208 373 -731 1066
-106 142 -209 344 -274 544 -38 117 -106 369 -106 394 0 10 25 22 78 37 42 12
90 26 105 32 l29 11 -4 88 -3 89 52 67 c28 37 59 90 69 118 21 64 15 157 -14
214 -19 38 -93 114 -110 114 -4 0 -8 18 -9 39 -1 21 -9 55 -17 75 l-15 36
-899 0 c-891 0 -900 0 -925 -20 -34 -27 -43 -77 -28 -157 l12 -64 -55 -52
c-82 -78 -105 -178 -70 -298 21 -71 54 -114 115 -147 l49 -27 0 -93 0 -93 63
-29 c50 -24 75 -30 130 -30 l67 0 0 -52 c0 -153 -83 -495 -190 -784 -49 -130
-240 -526 -516 -1065 -218 -427 -277 -556 -364 -796 -42 -115 -140 -443 -140
-470 0 -14 -79 126 -109 195 -95 215 -283 475 -596 822 -226 249 -392 446
-495 585 -102 138 -214 324 -250 415 -12 30 -44 106 -71 168 -27 62 -60 159
-74 215 -14 56 -28 110 -31 120 -4 14 1 17 27 17 18 0 68 10 111 21 108 29
118 44 94 145 -17 72 -17 74 3 102 11 16 28 35 37 43 72 59 121 222 95 311
-17 55 -69 126 -130 177 -52 44 -74 98 -51 126 11 14 -3 86 -22 111 -4 6 -58
26 -118 44 -61 19 -110 37 -110 42 0 4 20 118 45 254 25 135 45 250 45 255 0
5 -175 9 -420 9 l-420 0 0 -1376z m11061 645 c33 -79 82 -184 109 -234 346
-648 500 -1020 535 -1290 l7 -50 -84 -13 c-119 -19 -128 -27 -128 -111 0 -68
-1 -70 -34 -91 -80 -49 -112 -111 -109 -211 1 -61 21 -97 89 -157 l56 -50 -7
-74 -7 -74 73 -21 c41 -12 91 -25 111 -28 42 -8 42 10 6 -175 -52 -272 -135
-495 -375 -1014 -265 -574 -404 -905 -439 -1048 -11 -43 -21 -78 -24 -78 -3 0
-16 25 -28 55 -34 76 -196 346 -346 574 -142 217 -236 382 -294 516 -60 138
-115 360 -136 542 l-6 51 32 7 c60 13 158 57 168 76 6 10 10 45 10 78 0 56 2
62 34 86 53 40 96 131 96 201 0 76 -34 150 -82 184 -42 28 -58 83 -33 110 23
25 18 46 -17 76 -44 36 -106 64 -146 64 l-34 0 7 53 c12 85 69 282 128 437 30
80 144 327 252 550 269 551 481 1019 525 1155 15 46 20 58 26 53 2 -3 31 -69
65 -149z m-3121 -245 c0 -8 40 -97 89 -198 78 -160 125 -236 367 -597 205
-307 298 -456 359 -574 95 -186 168 -401 177 -519 l3 -39 -90 -28 c-115 -36
-130 -52 -121 -134 l6 -59 -59 -61 c-61 -62 -91 -126 -91 -189 1 -49 35 -112
90 -165 l50 -48 0 -81 c0 -54 4 -83 13 -89 26 -16 144 -53 170 -53 22 0 27 -4
23 -17 -2 -10 -12 -65 -21 -123 -54 -336 -157 -626 -364 -1015 -255 -480 -387
-757 -478 -1000 -24 -66 -50 -136 -57 -155 -8 -19 -28 -87 -45 -150 -17 -63
-34 -122 -37 -130 -3 -9 -16 10 -33 50 -34 79 -75 149 -149 255 -71 102 -329
446 -443 591 -94 120 -222 325 -271 433 -46 104 -93 247 -118 359 -12 57 -20
104 -19 106 2 1 37 15 78 31 41 15 87 40 103 54 26 23 28 29 19 56 -25 79 -25
81 33 143 62 69 80 113 80 198 -1 84 -24 140 -84 199 l-50 49 0 77 c0 60 -4
79 -18 92 -25 23 -79 44 -134 52 -69 10 -70 12 -22 258 51 262 224 663 614
1432 218 427 302 622 376 872 35 120 54 161 54 117z m-3511 -689 c48 -122 157
-324 249 -460 90 -133 375 -503 471 -610 98 -110 305 -461 383 -650 31 -74 88
-282 88 -319 0 -18 -19 -31 -101 -71 -124 -61 -139 -80 -139 -177 0 -58 -3
-68 -20 -73 -34 -11 -88 -84 -100 -137 -16 -65 -8 -153 19 -205 19 -38 94
-113 113 -113 4 0 8 -40 8 -88 l0 -89 38 -17 c20 -9 77 -28 126 -41 49 -13 90
-26 92 -28 6 -6 -54 -274 -87 -384 -78 -270 -200 -554 -388 -908 -281 -527
-345 -658 -459 -940 -74 -185 -154 -423 -177 -530 -10 -44 -20 -83 -24 -87 -4
-4 -32 39 -64 96 -93 168 -286 415 -697 891 -187 217 -330 424 -400 579 -25
56 -110 319 -110 342 0 6 34 20 76 32 94 28 151 63 160 99 4 15 2 46 -4 70
-18 65 -16 74 33 133 66 80 85 127 85 207 0 101 -13 133 -84 209 -83 91 -90
104 -76 155 9 33 8 45 -4 64 -16 24 -80 50 -153 61 -72 11 -73 14 -58 134 20
161 84 402 165 620 17 47 170 362 340 700 321 642 408 827 489 1038 61 162
146 428 162 510 6 35 15 60 18 55 4 -4 18 -35 30 -68z"/>
<path d="M12785 2403 c-4 -10 -11 -37 -15 -61 -6 -36 -4 -45 12 -53 17 -9 18
-5 18 61 0 73 -3 82 -15 53z"/>
<path d="M0 67 l0 -67 60 0 c33 0 60 4 60 8 0 4 -27 34 -60 67 l-60 59 0 -67z"/>
</g>
</svg>
